<svg version="1.2" xmlns="http://www.w3.org/2000/svg" viewBox="1.689412498784293e-13 83.84641478402136 499.99999999999994 416.15358521597875" width="501" height="418"><defs><linearGradient id="P" gradientUnits="userSpaceOnUse"/><linearGradient id="g1" x2="1" href="#P" gradientTransform="matrix(.023,0,0,.008,254.464,186.119)"><stop stop-color="#6fc3f7"/><stop offset="1" stop-color="#2b3656"/></linearGradient><linearGradient id="g2" x2="1" href="#P" gradientTransform="matrix(500,0,0,414.303,0,85.697)"><stop stop-color="#6fc3f7"/><stop offset="1" stop-color="#2b3656"/></linearGradient><clipPath clipPathUnits="userSpaceOnUse" id="cp1"><path d="m366.26 171.6c0.01 0-11.75-1.06-30.58-0.08-0.17-7.74 6.6-23.27 0.68-27.41-4.35-2.51-29.76 6.37-45.43 32.81-31.26 7.34-41.64 4.86-44.14 33.81-4.27-10.24 7.73-43.1-7.39-46.15-45.86 0.78-80.15 91.3-61.71 127.06-11.39-18.74-13.14-40.25-8.24-60.91-53.05 42.87-78.29 115.45-47.63 174.47-17.91-14.77-26.05-18.18-65.31-9.27-35.72 8.1-52.75 11.12-55.95 18.71-9.91 23.48 106.15 52.89 144.53 23.37 29.84 54.55 273.69 107.67 181.81-1.97-4.93-12.34-9.48-21.97-15.57-32.09 14.87-17.06 34.84-44.53 27.18-63.31q0 0 0 0c-9.94-15.39-33.24 4.61-50.79 16.59-8.85 6.04-12.18-2.38-16.9-8.1-40.67-45.08-21-91.16 17.53-124.66 23.27 65 35.8 39.22 33.17-16.01 0.77-12.37 33.45-15.29 44.74-18.29-9.55 18.73 25.23 83.4 62.24 69.08 15.73-17.4-13.58-43.31 9.35-73.05 149.4-130.71-9.47-132.19-71.59-14.6z"/></clipPath><linearGradient id="g3" x2="1" href="#P" gradientTransform="matrix(472.729,55.05,-57.576,494.425,104.235,35.618)"><stop stop-color="#6fc3f7"/><stop offset="1" stop-color="#2b3656" stop-opacity="0"/></linearGradient><linearGradient id="g4" x2="1" href="#P" gradientTransform="matrix(230.547,0,0,188.538,108.474,311.116)"><stop stop-color="#fff"/><stop offset="1" stop-color="#2b3656" stop-opacity="0"/></linearGradient></defs><style>.a{fill:url(#g1)}.b{fill:url(#g2)}.c{fill:url(#g3)}.d{fill:url(#g4)}.e{fill:#29323d}.f{opacity:.5;mix-blend-mode:multiply;fill:#dbcbcb}</style><path class="a" d="m254.5 186.1q0 0 0 0-0.1 0 0 0z"/><path class="b" d="m366.3 171.6c0 0-11.8-1.1-30.6-0.1-0.2-7.7 6.6-23.2 0.7-27.4-4.4-2.5-29.8 6.4-45.5 32.8-31.2 7.4-41.6 4.9-44.1 33.8-4.3-10.2 7.7-43.1-7.4-46.1-45.9 0.8-80.1 91.3-61.7 127-11.4-18.7-13.2-40.2-8.3-60.9-53 42.9-78.2 115.5-47.6 174.5-17.9-14.8-26-18.2-65.3-9.3-35.7 8.1-52.7 11.2-55.9 18.7-9.9 23.5 106.1 52.9 144.5 23.4 29.8 54.6 273.7 107.7 181.8-2-4.9-12.3-9.5-21.9-15.6-32.1 14.9-17 34.9-44.5 27.2-63.3q0 0 0 0c-9.9-15.4-33.2 4.6-50.8 16.6-8.8 6.1-12.2-2.4-16.9-8.1-40.7-45-21-91.1 17.6-124.6 23.2 65 35.8 39.2 33.1-16 0.8-12.4 33.5-15.3 44.8-18.3-9.6 18.7 25.2 83.4 62.2 69.1 15.7-17.4-13.6-43.4 9.3-73.1 149.5-130.7-9.4-132.2-71.5-14.6z"/><g clip-path="url(#cp1)"><path class="c" d="m235.2 427.1c-29.8-33.2-49.8-72.8-42.8-110.6 7.9-43.3 31.3-127.2 172.5-137.1 27.3-1.9 55.1-1.1 76.1 1 4.2-5.3 9.5-10.5 16.3-15.3 41.7-29.9 46.6-68.4 40-76.7-7.8-9.9-43.7-4.4-81.6 23.7-35.9 26.6-90.2-9.5-90.2-9.5 0 0-72.5 47.1-155 96.9-82.4 49.7-87.4 163.8-29.6 235.1 67.8 83.6 190.9 68.4 205.4 52.2-37.5-6.8-79.1-24.1-111.1-59.7z"/></g><g style="opacity:.36"><path class="d" d="m130.9 391c-13.2-28.3-16.9-56.4-16.6-79.9-7.5 24.8-8.1 52.3 0.2 76.8 5.6 16.5 16.6 29.7 27.3 46.7 34 53.5 174.3 79.1 197.2 57.3-30.9 8.8-171.3-22.1-208.1-100.9z"/></g><path class="e" d="m231.4 462.2l23.7-8c-17.6-5.4-39.3-9.6-62.7-13.2 13.2 3.9 26.1 7.8 33.3 11.6 0.2 3.2 2.3 6.4 5.7 9.6z"/><path class="f" d="m471 150.7c-6.7 4.3-14 7.6-21 11.3-12.6 6.6-22.9 14.6-28.9 27.8-3.7 8.2-7.9 20.7-18 22.9-13.9 2.9-19-13.4-25.9-21.7-4.4-5.3-9.9-8-16.7-7.4-7.1 0.6-14.3 2.8-21.1 4.7-30.8 8.6-59.4 27.4-77.1 54.4-9.5 14.5-16 31.1-14.1 48.6 0.2-11.9 4.8-21.8 10.3-31.3 6.9-11.8 16.3-24.8 29.7-35.7 1.2 4.3 3.5 11.7 7.1 18.6 5.5 10.7 12.5 20.5 17.4 19.7 5-0.8 7.5-15.8 8.4-27.3 0.6-6.6 0.3-16.9 0.4-25 0.1-4.4 2.8-8.2 6.9-9.9 11.5-4.7 24.1-8.3 37.5-10.2 0 0-5.4 22 14.3 47.4 17.8 23.1 40.2 27.1 47.9 21.7 8.3-6 3.7-18.7 0.9-41.4-1.2-9.9-1.9-27.2 25-46.5 11.8-8.4 24.6-23.9 31.1-32.8-4.2 4.6-8.8 8.7-14.1 12.1z"/></svg>